<?xml version="1.0" standalone="no"?>
<!DOCTYPE svg PUBLIC "-//W3C//DTD SVG 20010904//EN"
 "http://www.w3.org/TR/2001/REC-SVG-20010904/DTD/svg10.dtd">
<svg version="1.0" xmlns="http://www.w3.org/2000/svg"
 width="328.000000pt" height="328.000000pt" viewBox="0 0 328.000000 328.000000"
 preserveAspectRatio="xMidYMid meet">

<g transform="translate(0.000000,328.000000) scale(0.100000,-0.100000)"
fill="#000000" stroke="none">
<path d="M430 2845 c0 -13 28 -15 190 -15 162 0 190 2 190 15 0 13 -28 15
-190 15 -162 0 -190 -2 -190 -15z"/>
<path d="M2725 2850 c-4 -6 -3 -16 3 -22 6 -6 12 -6 17 2 4 6 3 16 -3 22 -6 6
-12 6 -17 -2z"/>
<path d="M2812 2846 c1 -10 8 -17 13 -17 15 1 12 24 -3 29 -9 3 -13 -2 -10
-12z"/>
<path d="M810 1395 l0 -425 55 0 55 0 0 164 0 164 173 4 c197 5 249 19 312 89
97 108 78 297 -38 376 -67 45 -121 53 -352 53 l-205 0 0 -425z m464 309 c52
-26 76 -73 76 -145 0 -66 -25 -111 -80 -143 -31 -19 -52 -21 -190 -21 l-155 0
-3 155 c-1 85 0 160 3 168 4 11 35 13 158 10 130 -3 158 -6 191 -24z"/>
<path d="M1630 1395 l0 -425 56 0 57 0 -5 365 c-2 200 -3 364 -2 362 1 -1 18
-49 38 -107 20 -58 80 -220 134 -360 l99 -255 43 0 43 0 99 260 c54 143 114
305 133 360 l34 100 1 -362 0 -363 50 0 50 0 0 425 0 425 -73 0 -73 0 -127
-339 c-70 -186 -127 -346 -127 -355 0 -33 -16 -15 -28 32 -7 26 -65 185 -130
354 l-117 308 -77 0 -78 0 0 -425z"/>
<path d="M1280 430 c0 -6 57 -10 150 -10 93 0 150 4 150 10 0 6 -57 10 -150
10 -93 0 -150 -4 -150 -10z"/>
</g>
</svg>
